<?xml version="1.0" encoding="UTF-8"?>
<svg id="_图层_1" data-name="图层_1" xmlns="http://www.w3.org/2000/svg" version="1.1" xmlns:xlink="http://www.w3.org/1999/xlink" viewBox="0 0 200 200">
  <!-- Generator: Adobe Illustrator 29.2.1, SVG Export Plug-In . SVG Version: 2.1.0 Build 116)  -->
  <defs>
    <style>
      .st0 {
        fill: #f8c080;
      }

      .st1 {
        fill: #ef8d1e;
      }

      .st2 {
        fill: #fff;
        isolation: isolate;
        opacity: .2;
      }

      .st3 {
        fill: #f7931e;
      }

      .st4 {
        fill: #f7cc9a;
      }

      .st5 {
        fill: #f9c488;
      }
    </style>
  </defs>
  <path class="st3" d="M20,89.3l32-37.3h96s32,37.3,32,37.3v90.7H20v-90.7Z"/>
  <path class="st2" d="M89.3,180v-90.7l-37.3-37.3v128"/>
  <path class="st0" d="M180,89.3h-90.7l-37.3-37.3h96s32,37.3,32,37.3Z"/>
  <path class="st5" d="M52,52v-10.7c0-11.8,9.6-21.3,21.3-21.3h53.3c11.8,0,21.3,9.6,21.3,21.3v10.7"/>
  <path class="st4" d="M89.3,89.3h90.7v90.7h-90.7v-90.7Z"/>
  <path class="st1" d="M158.7,132h-48c-1.5,0-2.7-1.2-2.7-2.7,0-1.5,1.2-2.7,2.7-2.7h48c1.5,0,2.7,1.2,2.7,2.7,0,1.5-1.2,2.7-2.7,2.7Z"/>
</svg>